<svg xmlns="http://www.w3.org/2000/svg" viewBox="0 0 957.24 538.44"><defs><style>.cls-1{fill:#ff5c35;}.cls-2{fill:#fff;}</style></defs><title>LOGOTIPO WHITE4K (Neag Design)</title><g id="LOGOTIPOS"><g id="LOGO_PRINCIPAL_BRANCA" data-name="LOGO PRINCIPAL BRANCA"><rect class="cls-1" x="196.85" y="186.52" width="165.4" height="165.4" rx="27.03"/><path class="cls-2" d="M306,223.28a10.08,10.08,0,0,0-1.75.16,9.52,9.52,0,0,0-6.8,5.37L272.81,285,261.66,258l-.09-.22a9.44,9.44,0,0,0-8.65-5.76H233.61l26,63.2h19.49a9.21,9.21,0,0,0,5.4-1.74,9.77,9.77,0,0,0,3.07-3.64.93.93,0,0,1,.05-.1l.23-.54,37.65-85.87Z"/><path class="cls-2" d="M433.87,218.36a7,7,0,0,0-2.66-5.16,10.74,10.74,0,0,0-6.73-1.85,13.34,13.34,0,0,0-4.81.75,6.29,6.29,0,0,0-2.89,2.06,5.09,5.09,0,0,0-1,3,4.33,4.33,0,0,0,.55,2.43,5.68,5.68,0,0,0,1.81,1.85,12.58,12.58,0,0,0,2.87,1.4,28.87,28.87,0,0,0,3.79,1.06l5.3,1.2a37.73,37.73,0,0,1,8.08,2.65,22.18,22.18,0,0,1,5.9,3.94,15.56,15.56,0,0,1,3.63,5.27,17.71,17.71,0,0,1,1.26,6.68,17.2,17.2,0,0,1-3,10,18.31,18.31,0,0,1-8.38,6.41,34.94,34.94,0,0,1-13.17,2.23A36,36,0,0,1,411,260a19.12,19.12,0,0,1-8.94-7A21.47,21.47,0,0,1,398.78,241h14.27a9.4,9.4,0,0,0,1.59,5,8.81,8.81,0,0,0,3.9,3,14.88,14.88,0,0,0,5.76,1,14.38,14.38,0,0,0,5.13-.81,7.5,7.5,0,0,0,3.27-2.26,5.34,5.34,0,0,0,1.17-3.31,4.65,4.65,0,0,0-1.08-3,8.39,8.39,0,0,0-3.24-2.16,34.8,34.8,0,0,0-5.55-1.7l-6.44-1.51q-8-1.83-12.61-5.94t-4.57-11.12a16.52,16.52,0,0,1,3.07-10,20.26,20.26,0,0,1,8.58-6.71A30.64,30.64,0,0,1,424.51,199,29.7,29.7,0,0,1,437,201.46a19.3,19.3,0,0,1,8.2,6.79,18.16,18.16,0,0,1,3,10.11Z"/><path class="cls-2" d="M457.64,262.3V200.67h43v12.09H472.54V225.4h25.88v12.13H472.54V250.2h28.08v12.1Z"/><path class="cls-2" d="M565.39,262.3V200.67h14.9V250.2h25.64v12.1Z"/><path class="cls-2" d="M629.27,200.67V262.3h-14.9V200.67Z"/><path class="cls-1" d="M553.74,200.67,528.82,262.3h-14.9l24.92-61.63Z"/><path class="cls-2" d="M694.76,227.75v8.15a27.33,27.33,0,0,1-3.5,14.18,23.59,23.59,0,0,1-9.62,9.06,33.23,33.23,0,0,1-29.57-.66,26.44,26.44,0,0,1-10.41-10.92,35.5,35.5,0,0,1-3.74-16.84,37.48,37.48,0,0,1,2.25-13.45,28.79,28.79,0,0,1,6.31-10,27.06,27.06,0,0,1,9.39-6.19,32.58,32.58,0,0,1,21.49-.57,26.55,26.55,0,0,1,8.18,4.33,23.18,23.18,0,0,1,5.8,6.65A21.71,21.71,0,0,1,694.1,220H679a10.61,10.61,0,0,0-1.5-3.34,9.79,9.79,0,0,0-2.43-2.5,10.67,10.67,0,0,0-3.32-1.54,15,15,0,0,0-4.09-.53,13.7,13.7,0,0,0-7.74,2.16,13.91,13.91,0,0,0-5.05,6.31,25.32,25.32,0,0,0-1.77,10,26.7,26.7,0,0,0,1.71,10.12,13,13,0,0,0,12.85,8.58,16.3,16.3,0,0,0,6.94-1.34,9.58,9.58,0,0,0,4.31-3.81,10.61,10.61,0,0,0,1.46-5.48H668.2V227.75Z"/><polygon class="cls-2" points="713.97 262.3 697.96 262.3 718.76 200.66 738.59 200.66 759.38 262.3 743.37 262.3 728.9 216.19 728.42 216.19 713.97 262.3"/><path class="cls-2" d="M398.78,277.83h18.45L432.88,316h.72l15.65-38.16H467.7v61.63H453.19V301.61h-.51l-14.8,37.46h-9.27L413.8,301.4h-.51v38.06H398.78Z"/><polygon class="cls-2" points="490.36 339.46 474.35 339.46 495.14 277.83 514.98 277.83 535.77 339.46 519.76 339.46 505.29 293.36 504.8 293.36 490.36 339.46"/><rect class="cls-2" x="488.22" y="315.21" width="33.46" height="11.31"/><path class="cls-2" d="M542.42,339.46V277.83h25.46a26.74,26.74,0,0,1,12,2.49,18.1,18.1,0,0,1,7.78,7.1,21.1,21.1,0,0,1,2.74,10.94,20.08,20.08,0,0,1-2.8,10.88,17.76,17.76,0,0,1-7.95,6.8,29.38,29.38,0,0,1-12.18,2.33h-16.1V306.63h13.33a15.64,15.64,0,0,0,5.64-.88,7.11,7.11,0,0,0,3.45-2.71,8.55,8.55,0,0,0,1.17-4.68,8.81,8.81,0,0,0-1.17-4.74,7.18,7.18,0,0,0-3.46-2.83,14.82,14.82,0,0,0-5.63-1h-7.34v49.62Zm34.7-28.16,15.34,28.16H576.21l-15-28.16Z"/><path class="cls-2" d="M598.51,339.46V277.83h14.9V303.9h.81l20.37-26.07h17.55l-21.85,27.51,22.24,34.12H634.71l-15.34-24.22-6,7.52v16.7Z"/><path class="cls-2" d="M658,339.46V277.83h43v12.1H672.9v12.64h25.88V314.7H672.9v12.67H701v12.09Z"/><path class="cls-2" d="M708.29,289.93v-12.1h52.09v12.1H741.7v49.53H727V289.93Z"/></g></g></svg>