<svg xmlns="http://www.w3.org/2000/svg" viewBox="0 0 957.24 538.44"><defs><style>.cls-1{fill:#fff;}</style></defs><title>LOGOTIPO MONO WHITE4K (Neag Design)</title><g id="LOGOTIPOS"><g id="LOGO_BRANCA" data-name="LOGO BRANCA"><path class="cls-1" d="M335.21,186.53H223.88a27,27,0,0,0-27,27V324.89a27,27,0,0,0,27,27H335.21a27,27,0,0,0,27-27V213.56A27,27,0,0,0,335.21,186.53ZM287.84,309.15l-.23.54a.93.93,0,0,0-.05.1,9.71,9.71,0,0,1-3.07,3.64,9.26,9.26,0,0,1-5.41,1.74H259.6l-26-63.2h19.31a9.46,9.46,0,0,1,8.66,5.76l.09.23,11.14,27.09,24.67-56.24a9.51,9.51,0,0,1,6.8-5.36,9.11,9.11,0,0,1,1.75-.17h19.47Z"/><path class="cls-1" d="M447.71,237a15.35,15.35,0,0,0-3.62-5.26,22.36,22.36,0,0,0-5.9-3.95,37.74,37.74,0,0,0-8.08-2.64l-5.3-1.21a30.09,30.09,0,0,1-3.79-1.05,13.09,13.09,0,0,1-2.88-1.4,5.74,5.74,0,0,1-1.8-1.85,4.37,4.37,0,0,1-.56-2.44,5,5,0,0,1,1-3,6.22,6.22,0,0,1,2.89-2.06,13.08,13.08,0,0,1,4.81-.76,10.74,10.74,0,0,1,6.73,1.85,7.08,7.08,0,0,1,2.66,5.16h14.26a18.08,18.08,0,0,0-3-10.11,19.15,19.15,0,0,0-8.2-6.78A29.53,29.53,0,0,0,424.51,199,30.85,30.85,0,0,0,412,201.45a20.47,20.47,0,0,0-8.58,6.71,16.51,16.51,0,0,0-3.06,10q0,7,4.57,11.12t12.61,5.95l6.44,1.5a34.8,34.8,0,0,1,5.55,1.7,8.48,8.48,0,0,1,3.24,2.17,4.62,4.62,0,0,1,1.08,3,5.32,5.32,0,0,1-1.17,3.31,7.45,7.45,0,0,1-3.27,2.26,14.38,14.38,0,0,1-5.13.81,15,15,0,0,1-5.76-1,8.72,8.72,0,0,1-3.9-3,9.46,9.46,0,0,1-1.6-5H398.78q.09,7.23,3.28,11.95a19.06,19.06,0,0,0,8.94,7,35.79,35.79,0,0,0,13.48,2.32,34.78,34.78,0,0,0,13.17-2.23,18.31,18.31,0,0,0,8.38-6.41,17.15,17.15,0,0,0,2.94-10A17.59,17.59,0,0,0,447.71,237Z"/><path class="cls-1" d="M500.61,212.77v-12.1h-43V262.3h43V250.2H472.54V237.53h25.88V225.41H472.54V212.77Z"/><path class="cls-1" d="M580.28,250.2V200.67H565.39V262.3h40.53V250.2Z"/><path class="cls-1" d="M614.37,200.67V262.3h14.9V200.67Z"/><path class="cls-1" d="M538.84,200.67,513.92,262.3h14.89l24.92-61.63Z"/><path class="cls-1" d="M694.76,227.75v8.16a27.32,27.32,0,0,1-3.5,14.17,23.52,23.52,0,0,1-9.62,9.06,33.25,33.25,0,0,1-29.58-.66,26.29,26.29,0,0,1-10.4-10.92,35.5,35.5,0,0,1-3.74-16.84,37.48,37.48,0,0,1,2.25-13.45,28.64,28.64,0,0,1,6.31-10,27,27,0,0,1,9.38-6.19,32.78,32.78,0,0,1,21.5-.57,26.88,26.88,0,0,1,8.18,4.33,23.18,23.18,0,0,1,5.8,6.65A21.87,21.87,0,0,1,694.1,220H679a10.67,10.67,0,0,0-1.5-3.35,10,10,0,0,0-2.43-2.5,10.77,10.77,0,0,0-3.32-1.54,15,15,0,0,0-4.09-.53,13.73,13.73,0,0,0-7.75,2.16,13.94,13.94,0,0,0-5,6.31,25.35,25.35,0,0,0-1.77,10,26.79,26.79,0,0,0,1.71,10.13,13,13,0,0,0,12.85,8.57,16.49,16.49,0,0,0,6.94-1.33,9.71,9.71,0,0,0,4.31-3.82,10.61,10.61,0,0,0,1.46-5.48h-12.2V227.75Z"/><polygon class="cls-1" points="713.97 262.3 697.96 262.3 718.76 200.67 738.59 200.67 759.38 262.3 743.37 262.3 728.9 216.19 728.42 216.19 713.97 262.3"/><path class="cls-1" d="M449.25,277.84,433.6,316h-.72l-15.65-38.16H398.78v61.63h14.51V301.4h.51l14.8,37.68h9.27l14.81-37.47h.51v37.86h14.5V277.84Z"/><polygon class="cls-1" points="490.36 339.47 474.35 339.47 495.14 277.84 514.97 277.84 535.77 339.47 519.76 339.47 505.28 293.36 504.8 293.36 490.36 339.47"/><rect class="cls-1" x="488.22" y="315.21" width="33.46" height="11.31"/><path class="cls-1" d="M579.68,316l-2.57-4.71h-16l3.78,7.08,11.27,21.09h16.25Zm7.93-28.59a18.08,18.08,0,0,0-7.77-7.1,26.89,26.89,0,0,0-12-2.48H542.42v61.63h14.89V318.38h10.11A29.23,29.23,0,0,0,579.61,316l.07,0a17.74,17.74,0,0,0,7.88-6.77,20.14,20.14,0,0,0,2.79-10.88A21,21,0,0,0,587.61,287.42Zm-30.3,2.43h7.34a14.76,14.76,0,0,1,5.63.94,7.2,7.2,0,0,1,3.46,2.83,8.86,8.86,0,0,1,1.18,4.74,8.5,8.5,0,0,1-1.18,4.68,6.92,6.92,0,0,1-3.44,2.71,15.68,15.68,0,0,1-5.65.89h-7.34Z"/><path class="cls-1" d="M630.29,305.34l21.84-27.5H634.59L614.22,303.9h-.82V277.84H598.51v61.63H613.4v-16.7l6-7.52,15.35,24.22h17.82Z"/><path class="cls-1" d="M701,289.94v-12.1H658v61.63h43v-12.1H672.9V314.7h25.88V302.58H672.9V289.94Z"/><path class="cls-1" d="M708.29,277.84v12.1H727v49.53h14.68V289.94h18.69v-12.1Z"/></g></g></svg>