<svg xmlns="http://www.w3.org/2000/svg" viewBox="0 0 957.24 538.44"><defs><style>.cls-1{fill:#ff5c35;}</style></defs><title>SIMBOLO4K (Neag Design)</title><g id="LOGOTIPOS"><g id="LOGO_SYMBOL" data-name="LOGO SYMBOL"><path class="cls-1" d="M590,103.77H367.25a54.07,54.07,0,0,0-54.08,54.08V380.59a54.06,54.06,0,0,0,54.08,54.08H590a54.07,54.07,0,0,0,54.08-54.08V157.85A54.08,54.08,0,0,0,590,103.77ZM495.21,349.1l-.46,1.08a1.85,1.85,0,0,0-.1.2,19.53,19.53,0,0,1-6.14,7.29,18.52,18.52,0,0,1-10.82,3.48h-39l-52-126.45h38.64a18.93,18.93,0,0,1,17.32,11.52c.06.16.12.32.18.46l22.29,54.2,49.36-112.52a19,19,0,0,1,13.61-10.72,18.22,18.22,0,0,1,3.5-.34h38.95Z"/></g></g></svg>